<svg width="21" height="22" viewBox="0 0 21 22" fill="none" xmlns="http://www.w3.org/2000/svg">
<path d="M10.5 0.750943C13.263 0.750943 15.7724 1.83396 17.6479 3.60377V0H19.0275V5.18113C19.0387 5.19623 19.0499 5.21132 19.0611 5.23019C19.0499 5.23019 19.0387 5.23019 19.0275 5.22642V5.71321H19.0126L19.0275 6.24906L13.386 6.38868L13.3525 4.99245L16.6225 4.90943C15.0192 3.39623 12.8677 2.46792 10.5 2.46792C5.53711 2.46792 1.51758 6.53962 1.51758 11.5585C1.51758 16.5774 5.53711 20.6566 10.5 20.6566C15.4629 20.6566 19.4862 16.5849 19.4862 11.5623C19.4862 10.6566 19.3519 9.78113 19.1096 8.95472C19.1096 8.95472 20.4966 8.10943 20.5265 8.21132C20.8322 9.21132 21 10.2717 21 11.3736C21 17.2453 16.2981 22 10.5 22C4.70188 22 0 17.2453 0 11.3736C0 5.50566 4.70188 0.750943 10.5 0.750943Z" fill="#666666"/>
<path d="M10.052 12.0901V4.42969H10.9842V11.4523L14.6309 15.5089L13.8516 16.2297L10.1266 12.0901H10.052Z" fill="#666666"/>
</svg>
