<svg width="21" height="22" viewBox="0 0 21 22" fill="none" xmlns="http://www.w3.org/2000/svg">
<path d="M10.5 0.750943C7.73704 0.750943 5.22763 1.83396 3.3521 3.60377V0H1.97248V5.18113C1.96129 5.19623 1.95011 5.21132 1.93892 5.23019C1.95011 5.23019 1.96129 5.23019 1.97248 5.22642V5.71321H1.98739L1.97248 6.24906L7.61399 6.38868L7.64755 4.99245L4.37749 4.90943C5.98082 3.39623 8.13228 2.46792 10.5 2.46792C15.4629 2.46792 19.4824 6.53962 19.4824 11.5585C19.4824 16.5774 15.4629 20.6566 10.5 20.6566C5.53711 20.6566 1.51385 16.5849 1.51385 11.5623C1.51385 10.6566 1.64808 9.78113 1.89045 8.95472C1.89045 8.95472 0.503374 8.10943 0.473544 8.21132C0.167791 9.21132 0 10.2717 0 11.3736C0 17.2453 4.70188 22 10.5 22C16.2981 22 21 17.2453 21 11.3736C21 5.50566 16.2981 0.750943 10.5 0.750943Z" fill="#666666"/>
<path d="M10.948 12.0901V4.42969H10.0158V11.4523L6.36914 15.5089L7.14844 16.2297L10.8734 12.0901H10.948Z" fill="#666666"/>
</svg>
